<svg width="19" height="19" viewBox="0 0 19 19" fill="none" xmlns="http://www.w3.org/2000/svg">
<path d="M12.3525 0.113814C12.3143 0.114753 12.2762 0.118493 12.2385 0.125004H2.98966C1.41686 0.125004 0.125079 1.41679 0.125079 2.98959V12.2364C0.111302 12.3203 0.111302 12.4058 0.125079 12.4897V16.0104C0.125079 17.5832 1.41686 18.875 2.98966 18.875H12.2365C12.3204 18.8888 12.4059 18.8888 12.4898 18.875H16.0105C17.5833 18.875 18.8751 17.5832 18.8751 16.0104V12.4928C18.8889 12.4089 18.8889 12.3233 18.8751 12.2395V2.98959C18.8751 1.41679 17.5833 0.125004 16.0105 0.125004H12.4928C12.4465 0.117056 12.3995 0.113311 12.3525 0.113814ZM2.98966 1.6875H5.85425V5.85417H1.68758V2.98959C1.68758 2.26134 2.26142 1.6875 2.98966 1.6875ZM7.41674 1.6875H11.5834V5.85417H7.41674V1.6875ZM13.1459 1.6875H16.0105C16.7387 1.6875 17.3126 2.26134 17.3126 2.98959V5.85417H13.1459V1.6875ZM1.68758 7.41667H5.85425V11.5833H1.68758V7.41667ZM7.41674 7.41667H11.5834V11.5833H7.41674V7.41667ZM13.1459 7.41667H17.3126V11.5833H13.1459V7.41667ZM1.68758 13.1458H5.85425V17.3125H2.98966C2.26142 17.3125 1.68758 16.7387 1.68758 16.0104V13.1458ZM7.41674 13.1458H11.5834V17.3125H7.41674V13.1458ZM13.1459 13.1458H17.3126V16.0104C17.3126 16.7387 16.7387 17.3125 16.0105 17.3125H13.1459V13.1458Z" fill="black"/>
</svg>
