<svg width="23" height="22" viewBox="0 0 23 22" fill="none" xmlns="http://www.w3.org/2000/svg">
<path d="M5.35273 0.380615C4.29796 0.380615 3.39937 0.805969 2.82273 1.45468C2.2461 2.1034 1.97756 2.93536 1.97756 3.75579C1.97756 4.57621 2.2461 5.40817 2.82273 6.05689C3.39937 6.7056 4.29796 7.13206 5.35273 7.13206C6.4075 7.13206 7.3061 6.7056 7.88274 6.05689C8.45937 5.40817 8.7279 4.57621 8.7279 3.75579C8.7279 2.93536 8.45937 2.1034 7.88274 1.45468C7.3061 0.805969 6.4075 0.380615 5.35273 0.380615ZM17.1851 0.380615C16.1303 0.380615 15.2317 0.805969 14.6551 1.45468C14.0785 2.1034 13.8099 2.93536 13.8099 3.75579C13.8099 4.57621 14.0785 5.40817 14.6551 6.05689C15.2317 6.7056 16.1303 7.13206 17.1851 7.13206C18.2399 7.13206 19.1385 6.7056 19.7151 6.05689C20.2917 5.40817 20.5603 4.57621 20.5603 3.75579C20.5603 2.93536 20.2917 2.1034 19.7151 1.45468C19.1385 0.805969 18.2399 0.380615 17.1851 0.380615ZM5.35273 2.07095C5.98492 2.07095 6.35254 2.27808 6.61938 2.57827C6.88623 2.87847 7.03757 3.31099 7.03757 3.75579C7.03757 4.20058 6.88623 4.6342 6.61938 4.9344C6.35254 5.2346 5.98492 5.44172 5.35273 5.44172C4.72055 5.44172 4.35292 5.2346 4.08608 4.9344C3.81924 4.6342 3.6679 4.20058 3.6679 3.75579C3.6679 3.31099 3.81924 2.87847 4.08608 2.57827C4.35292 2.27808 4.72055 2.07095 5.35273 2.07095ZM17.1851 2.07095C17.8173 2.07095 18.1849 2.27808 18.4517 2.57827C18.7186 2.87847 18.8699 3.31099 18.8699 3.75579C18.8699 4.20058 18.7186 4.6342 18.4517 4.9344C18.1849 5.2346 17.8173 5.44172 17.1851 5.44172C16.5529 5.44172 16.1853 5.2346 15.9184 4.9344C15.6516 4.6342 15.5003 4.20058 15.5003 3.75579C15.5003 3.31099 15.6516 2.87847 15.9184 2.57827C16.1853 2.27808 16.5529 2.07095 17.1851 2.07095ZM1.8466 8.25895C0.841742 8.25895 0 9.08555 0 10.0945V10.2189C0 11.0287 0.326133 11.8168 0.929905 12.3824C1.71019 13.1139 3.13248 13.9033 5.35273 13.9033C7.57298 13.9033 8.99545 13.1142 9.77556 12.3835C10.3796 11.8176 10.7055 11.0287 10.7055 10.2189V10.0945C10.7055 9.08555 9.86372 8.25895 8.85886 8.25895H1.8466ZM13.679 8.25895C12.6741 8.25895 11.8324 9.08555 11.8324 10.0945V10.2178C11.8324 11.0276 12.1582 11.8165 12.7623 12.3824C13.5425 13.1139 14.9648 13.9033 17.1851 13.9033C19.4053 13.9033 20.8278 13.1142 21.6079 12.3835C22.212 11.8176 22.5378 11.0287 22.5378 10.2189V10.0945C22.5378 9.08555 21.6961 8.25895 20.6912 8.25895H13.679ZM1.8466 9.94929H8.85886C8.96061 9.94929 9.01513 10.0093 9.01513 10.0945V10.2189C9.01513 10.5777 8.87356 10.9124 8.62006 11.1499C8.12115 11.6172 7.18817 12.213 5.35273 12.213C3.5173 12.213 2.58415 11.6175 2.08541 11.1499C1.83162 10.9121 1.69034 10.5777 1.69034 10.2189V10.0945C1.69034 10.0093 1.74486 9.94929 1.8466 9.94929ZM13.679 9.94929H20.6912C20.793 9.94929 20.8475 10.0093 20.8475 10.0945V10.2189C20.8475 10.5777 20.7059 10.9124 20.4524 11.1499C19.9535 11.6172 19.0205 12.213 17.1851 12.213C15.3497 12.213 14.4165 11.6175 13.9178 11.1499C13.6643 10.9124 13.5227 10.5766 13.5227 10.2178V10.0945C13.5227 10.0093 13.5772 9.94929 13.679 9.94929ZM18.8666 15.0214C18.6984 15.0214 18.5341 15.0717 18.3946 15.1656C18.2551 15.2596 18.1468 15.3931 18.0836 15.5489C18.0203 15.7048 18.0051 15.876 18.0397 16.0406C18.0743 16.2052 18.1572 16.3557 18.2779 16.4729L19.0889 17.284H13.8044C13.6924 17.2824 13.5812 17.3031 13.4773 17.3449C13.3734 17.3866 13.2788 17.4486 13.199 17.5273C13.1193 17.6059 13.0559 17.6996 13.0127 17.8029C12.9695 17.9063 12.9472 18.0171 12.9472 18.1292C12.9472 18.2412 12.9695 18.352 13.0127 18.4554C13.0559 18.5587 13.1193 18.6524 13.199 18.731C13.2788 18.8097 13.3734 18.8717 13.4773 18.9134C13.5812 18.9552 13.6924 18.9759 13.8044 18.9743H19.0889L18.2779 19.7854C18.1968 19.8633 18.132 19.9565 18.0874 20.0598C18.0428 20.163 18.0192 20.2741 18.0181 20.3865C18.0169 20.4989 18.0382 20.6105 18.0807 20.7146C18.1232 20.8187 18.1861 20.9133 18.2656 20.9928C18.3451 21.0723 18.4397 21.1351 18.5438 21.1776C18.6479 21.2201 18.7594 21.2414 18.8719 21.2403C18.9843 21.2391 19.0954 21.2156 19.1986 21.171C19.3018 21.1264 19.3951 21.0616 19.473 20.9805L21.7268 18.7267C21.8852 18.5682 21.9742 18.3533 21.9742 18.1292C21.9742 17.905 21.8852 17.6901 21.7268 17.5316L19.473 15.2778C19.3942 15.1967 19.2999 15.1322 19.1958 15.0881C19.0916 15.0441 18.9797 15.0214 18.8666 15.0214ZM3.64589 15.0225C3.42639 15.0289 3.218 15.1205 3.06484 15.2778L0.811053 17.5316C0.652613 17.6901 0.563608 17.905 0.563608 18.1292C0.563608 18.3533 0.652613 18.5682 0.811053 18.7267L3.06484 20.9805C3.14271 21.0616 3.23599 21.1264 3.33921 21.171C3.44243 21.2156 3.55351 21.2392 3.66596 21.2403C3.7784 21.2414 3.88993 21.2201 3.99404 21.1776C4.09814 21.1351 4.19272 21.0723 4.27223 20.9928C4.35174 20.9133 4.41459 20.8187 4.45709 20.7146C4.4996 20.6105 4.5209 20.4989 4.51976 20.3865C4.51861 20.2741 4.49505 20.163 4.45044 20.0598C4.40583 19.9565 4.34107 19.8633 4.25996 19.7854L3.4489 18.9743H8.73341C8.8454 18.9759 8.95659 18.9552 9.06052 18.9134C9.16445 18.8717 9.25904 18.8097 9.3388 18.731C9.41856 18.6524 9.48189 18.5587 9.52512 18.4554C9.56835 18.352 9.59061 18.2412 9.59061 18.1292C9.59061 18.0171 9.56835 17.9063 9.52512 17.8029C9.48189 17.6996 9.41856 17.6059 9.3388 17.5273C9.25904 17.4486 9.16445 17.3866 9.06052 17.3449C8.95659 17.3031 8.8454 17.2824 8.73341 17.284H3.4489L4.25996 16.4729C4.38189 16.3542 4.46513 16.2014 4.49878 16.0345C4.53244 15.8677 4.51495 15.6946 4.44859 15.5379C4.38224 15.3811 4.27011 15.2481 4.12689 15.1561C3.98366 15.0642 3.81602 15.0176 3.64589 15.0225Z" fill="black"/>
</svg>
