<svg width="19" height="19" viewBox="0 0 19 19" fill="none" xmlns="http://www.w3.org/2000/svg">
<path d="M2.98958 0.125C1.41678 0.125 0.125 1.41678 0.125 2.98958V16.0104C0.125 17.5832 1.41678 18.875 2.98958 18.875H16.0104C17.5832 18.875 18.875 17.5832 18.875 16.0104V2.98958C18.875 1.41678 17.5832 0.125 16.0104 0.125H2.98958ZM2.98958 1.6875H16.0104C16.7387 1.6875 17.3125 2.26134 17.3125 2.98958V16.0104C17.3125 16.7387 16.7387 17.3125 16.0104 17.3125H2.98958C2.26134 17.3125 1.6875 16.7387 1.6875 16.0104V2.98958C1.6875 2.26134 2.26134 1.6875 2.98958 1.6875ZM4.55208 4.8125C4.44856 4.81104 4.34577 4.83016 4.24971 4.86877C4.15364 4.90737 4.0662 4.96468 3.99247 5.03737C3.91875 5.11007 3.8602 5.19668 3.82024 5.2922C3.78028 5.38771 3.75971 5.49021 3.75971 5.59375C3.75971 5.69729 3.78028 5.79979 3.82024 5.8953C3.8602 5.99082 3.91875 6.07743 3.99247 6.15012C4.0662 6.22282 4.15364 6.28013 4.24971 6.31873C4.34577 6.35734 4.44856 6.37646 4.55208 6.375H14.4479C14.5514 6.37646 14.6542 6.35734 14.7503 6.31873C14.8464 6.28013 14.9338 6.22282 15.0075 6.15012C15.0813 6.07743 15.1398 5.99082 15.1798 5.8953C15.2197 5.79979 15.2403 5.69729 15.2403 5.59375C15.2403 5.49021 15.2197 5.38771 15.1798 5.2922C15.1398 5.19668 15.0813 5.11007 15.0075 5.03737C14.9338 4.96468 14.8464 4.90737 14.7503 4.86877C14.6542 4.83016 14.5514 4.81104 14.4479 4.8125H4.55208ZM4.55208 8.71875C4.44856 8.71729 4.34577 8.73641 4.24971 8.77502C4.15364 8.81362 4.0662 8.87093 3.99247 8.94363C3.91875 9.01632 3.8602 9.10293 3.82024 9.19845C3.78028 9.29396 3.75971 9.39646 3.75971 9.5C3.75971 9.60353 3.78028 9.70604 3.82024 9.80155C3.8602 9.89707 3.91875 9.98368 3.99247 10.0564C4.0662 10.1291 4.15364 10.1864 4.24971 10.225C4.34577 10.2636 4.44856 10.2827 4.55208 10.2812H14.4479C14.5514 10.2827 14.6542 10.2636 14.7503 10.225C14.8464 10.1864 14.9338 10.1291 15.0075 10.0564C15.0813 9.98368 15.1398 9.89707 15.1798 9.80155C15.2197 9.70604 15.2403 9.60353 15.2403 9.5C15.2403 9.39646 15.2197 9.29396 15.1798 9.19845C15.1398 9.10293 15.0813 9.01632 15.0075 8.94363C14.9338 8.87093 14.8464 8.81362 14.7503 8.77502C14.6542 8.73641 14.5514 8.71729 14.4479 8.71875H4.55208ZM4.55208 12.625C4.44856 12.6235 4.34577 12.6427 4.24971 12.6813C4.15364 12.7199 4.0662 12.7772 3.99247 12.8499C3.91875 12.9226 3.8602 13.0092 3.82024 13.1047C3.78028 13.2002 3.75971 13.3027 3.75971 13.4062C3.75971 13.5098 3.78028 13.6123 3.82024 13.7078C3.8602 13.8033 3.91875 13.8899 3.99247 13.9626C4.0662 14.0353 4.15364 14.0926 4.24971 14.1312C4.34577 14.1698 4.44856 14.189 4.55208 14.1875H14.4479C14.5514 14.189 14.6542 14.1698 14.7503 14.1312C14.8464 14.0926 14.9338 14.0353 15.0075 13.9626C15.0813 13.8899 15.1398 13.8033 15.1798 13.7078C15.2197 13.6123 15.2403 13.5098 15.2403 13.4062C15.2403 13.3027 15.2197 13.2002 15.1798 13.1047C15.1398 13.0092 15.0813 12.9226 15.0075 12.8499C14.9338 12.7772 14.8464 12.7199 14.7503 12.6813C14.6542 12.6427 14.5514 12.6235 14.4479 12.625H4.55208Z" fill="black"/>
</svg>
