<svg width="21" height="21" viewBox="0 0 21 21" fill="none" xmlns="http://www.w3.org/2000/svg">
<path d="M4.23486 0.604111C3.96391 0.608163 3.7052 0.717631 3.51363 0.909287L0.388626 4.03429C0.288654 4.13027 0.208839 4.24524 0.153855 4.37246C0.0988708 4.49967 0.0698231 4.63658 0.0684133 4.77517C0.0670034 4.91375 0.0932597 5.05122 0.145644 5.17953C0.198029 5.30784 0.275489 5.42441 0.373487 5.52241C0.471486 5.62041 0.588053 5.69787 0.716363 5.75025C0.844672 5.80264 0.982144 5.82889 1.12073 5.82748C1.25931 5.82607 1.39622 5.79702 1.52344 5.74204C1.65066 5.68706 1.76562 5.60724 1.86161 5.50727L3.20845 4.16043V13.6249C3.2065 13.763 3.232 13.9 3.28347 14.0281C3.33494 14.1562 3.41136 14.2728 3.50828 14.3711C3.6052 14.4694 3.7207 14.5475 3.84805 14.6007C3.9754 14.654 4.11207 14.6814 4.25012 14.6814C4.38816 14.6814 4.52483 14.654 4.65219 14.6007C4.77954 14.5475 4.89503 14.4694 4.99195 14.3711C5.08887 14.2728 5.16529 14.1562 5.21676 14.0281C5.26823 13.9 5.29374 13.763 5.29178 13.6249V4.16043L6.63863 5.50727C6.73461 5.60724 6.84958 5.68706 6.9768 5.74204C7.10401 5.79703 7.24092 5.82608 7.37951 5.82749C7.51809 5.8289 7.65557 5.80264 7.78388 5.75026C7.91219 5.69787 8.02875 5.62041 8.12675 5.52241C8.22475 5.42442 8.30221 5.30785 8.3546 5.17954C8.40698 5.05123 8.43324 4.91375 8.43183 4.77517C8.43042 4.63658 8.40137 4.49967 8.34638 4.37246C8.2914 4.24524 8.21158 4.13027 8.11161 4.03429L4.98661 0.909287C4.88808 0.810723 4.77079 0.732929 4.64166 0.680509C4.51254 0.62809 4.3742 0.602111 4.23486 0.604111ZM16.7349 0.604111C16.4639 0.608163 16.2052 0.717631 16.0136 0.909287L12.8886 4.03429C12.7887 4.13027 12.7088 4.24524 12.6539 4.37246C12.5989 4.49967 12.5698 4.63658 12.5684 4.77517C12.567 4.91375 12.5933 5.05123 12.6456 5.17954C12.698 5.30785 12.7755 5.42442 12.8735 5.52241C12.9715 5.62041 13.088 5.69787 13.2164 5.75026C13.3447 5.80264 13.4821 5.8289 13.6207 5.82749C13.7593 5.82608 13.8962 5.79703 14.0234 5.74204C14.1507 5.68706 14.2656 5.60724 14.3616 5.50727L15.7084 4.16043V13.6249C15.7065 13.763 15.732 13.9 15.7835 14.0281C15.8349 14.1562 15.9114 14.2728 16.0083 14.3711C16.1052 14.4694 16.2207 14.5475 16.348 14.6007C16.4754 14.654 16.6121 14.6814 16.7501 14.6814C16.8882 14.6814 17.0248 14.654 17.1522 14.6007C17.2795 14.5475 17.395 14.4694 17.492 14.3711C17.5889 14.2728 17.6653 14.1562 17.7168 14.0281C17.7682 13.9 17.7937 13.763 17.7918 13.6249V4.16043L19.1386 5.50727C19.2346 5.60724 19.3496 5.68706 19.4768 5.74204C19.604 5.79703 19.7409 5.82608 19.8795 5.82749C20.0181 5.8289 20.1556 5.80264 20.2839 5.75026C20.4122 5.69787 20.5288 5.62041 20.6268 5.52241C20.7248 5.42442 20.8022 5.30785 20.8546 5.17954C20.907 5.05123 20.9332 4.91375 20.9318 4.77517C20.9304 4.63658 20.9014 4.49967 20.8464 4.37246C20.7914 4.24524 20.7116 4.13027 20.6116 4.03429L17.4866 0.909287C17.3881 0.810723 17.2708 0.732929 17.1417 0.680509C17.0125 0.62809 16.8742 0.602111 16.7349 0.604111ZM10.4849 6.83987C10.2088 6.84392 9.94558 6.9574 9.75312 7.1554C9.56066 7.35339 9.45467 7.61969 9.45845 7.89578V16.8395L8.11161 15.4926C8.01562 15.3926 7.90066 15.3128 7.77344 15.2578C7.64622 15.2029 7.50931 15.1738 7.37073 15.1724C7.23214 15.171 7.09467 15.1972 6.96636 15.2496C6.83805 15.302 6.72148 15.3795 6.62348 15.4775C6.52548 15.5755 6.44802 15.692 6.39564 15.8204C6.34325 15.9487 6.317 16.0861 6.31841 16.2247C6.31982 16.3633 6.34887 16.5002 6.40385 16.6274C6.45884 16.7547 6.53865 16.8696 6.63863 16.9656L9.76363 20.0906C9.95898 20.2859 10.2239 20.3956 10.5001 20.3956C10.7763 20.3956 11.0413 20.2859 11.2366 20.0906L14.3616 16.9656C14.4616 16.8696 14.5414 16.7547 14.5964 16.6274C14.6514 16.5002 14.6804 16.3633 14.6818 16.2247C14.6832 16.0861 14.657 15.9487 14.6046 15.8204C14.5522 15.692 14.4748 15.5755 14.3768 15.4775C14.2788 15.3795 14.1622 15.302 14.0339 15.2496C13.9056 15.1972 13.7681 15.171 13.6295 15.1724C13.4909 15.1738 13.354 15.2029 13.2268 15.2578C13.0996 15.3128 12.9846 15.3926 12.8886 15.4926L11.5418 16.8395V7.89578C11.5437 7.7565 11.5176 7.61826 11.4652 7.48922C11.4127 7.36018 11.3349 7.24298 11.2364 7.14453C11.1379 7.04609 11.0206 6.9684 10.8915 6.91607C10.7624 6.86374 10.6241 6.83783 10.4849 6.83987Z" fill="black"/>
</svg>
