<svg width="21" height="22" viewBox="0 0 21 22" fill="none" xmlns="http://www.w3.org/2000/svg">
<path d="M10.5001 0.556396C9.72648 0.556397 8.95339 0.737337 8.24585 1.09961C8.24517 1.09995 8.24449 1.10029 8.24381 1.10063L2.15759 4.23376C1.20532 4.7242 0.604248 5.70942 0.604248 6.78096V15.1774C0.604248 16.2486 1.20464 17.2335 2.15759 17.7236L8.24381 20.8577C8.24415 20.858 8.24449 20.8584 8.24483 20.8587C9.65992 21.5833 11.3392 21.5833 12.7543 20.8587C12.755 20.8584 12.7557 20.858 12.7563 20.8577L18.8426 17.7236C19.7948 17.2331 20.3949 16.2486 20.3949 15.1774V6.78096C20.3949 5.71 19.7951 4.72497 18.8426 4.23478H18.8416L12.7563 1.10063C12.756 1.10029 12.7557 1.09995 12.7553 1.09961C12.0478 0.737335 11.2737 0.556396 10.5001 0.556396ZM10.5001 2.1189C11.0291 2.1189 11.5586 2.24307 12.0433 2.49121L18.1264 5.62333C18.1268 5.62367 18.1271 5.62401 18.1274 5.62435C18.562 5.84782 18.8324 6.29177 18.8324 6.78096V15.1774C18.8324 15.6666 18.5617 16.1109 18.1264 16.335L12.0422 19.4671C11.0736 19.9631 9.9278 19.9634 8.95894 19.4681L8.95691 19.4671L2.87272 16.335C2.87272 16.3347 2.87272 16.3343 2.87272 16.334C2.43815 16.1105 2.16675 15.6666 2.16675 15.1774V6.78096C2.16675 6.29105 2.43749 5.84748 2.87272 5.62333L8.95793 2.49121C9.44257 2.24307 9.97108 2.1189 10.5001 2.1189ZM3.97441 6.02616C3.79918 6.02766 3.62954 6.08802 3.49274 6.19754C3.35595 6.30707 3.25995 6.4594 3.22016 6.63005C3.18037 6.80071 3.19911 6.97979 3.27336 7.13852C3.34761 7.29725 3.47306 7.42641 3.62956 7.50525L8.22957 9.89579C8.7016 10.1409 9.20688 10.2741 9.71883 10.3566V18.0104C9.71737 18.1139 9.73649 18.2167 9.7751 18.3128C9.8137 18.4089 9.87102 18.4963 9.94371 18.57C10.0164 18.6438 10.103 18.7023 10.1985 18.7423C10.294 18.7822 10.3965 18.8028 10.5001 18.8028C10.6036 18.8028 10.7061 18.7822 10.8016 18.7423C10.8971 18.7023 10.9838 18.6438 11.0565 18.57C11.1291 18.4963 11.1865 18.4089 11.2251 18.3128C11.2637 18.2167 11.2828 18.1139 11.2813 18.0104V10.3566C11.7933 10.2741 12.2975 10.1409 12.7696 9.89579C12.7699 9.89579 12.7702 9.89579 12.7706 9.89579L17.3706 7.50627C17.4617 7.45898 17.5426 7.3942 17.6087 7.31565C17.6748 7.23709 17.7247 7.14629 17.7557 7.04843C17.7867 6.95057 17.7981 6.84757 17.7893 6.7453C17.7804 6.64303 17.7516 6.5435 17.7043 6.45239C17.657 6.36129 17.5922 6.28039 17.5136 6.21431C17.4351 6.14824 17.3443 6.09828 17.2464 6.0673C17.1486 6.03632 17.0456 6.02491 16.9433 6.03374C16.841 6.04256 16.7415 6.07144 16.6504 6.11873L12.0494 8.50928C11.5665 8.75986 11.0393 8.88368 10.5123 8.88566C10.5031 8.88516 10.494 8.88482 10.4848 8.88464C9.95851 8.88214 9.43191 8.75967 8.94979 8.50928L4.34977 6.11975C4.23447 6.05758 4.10539 6.0254 3.97441 6.02616ZM14.4063 12.0208C14.1991 12.0208 14.0004 12.1031 13.8539 12.2497C13.7074 12.3962 13.6251 12.5949 13.6251 12.8021C13.6251 13.0093 13.7074 13.208 13.8539 13.3545C14.0004 13.501 14.1991 13.5833 14.4063 13.5833C14.6135 13.5833 14.8122 13.501 14.9588 13.3545C15.1053 13.208 15.1876 13.0093 15.1876 12.8021C15.1876 12.5949 15.1053 12.3962 14.9588 12.2497C14.8122 12.1031 14.6135 12.0208 14.4063 12.0208ZM15.9688 14.1042C15.7616 14.1042 15.5629 14.1865 15.4164 14.333C15.2699 14.4795 15.1876 14.6782 15.1876 14.8854C15.1876 15.0926 15.2699 15.2913 15.4164 15.4378C15.5629 15.5844 15.7616 15.6667 15.9688 15.6667C16.176 15.6667 16.3747 15.5844 16.5213 15.4378C16.6678 15.2913 16.7501 15.0926 16.7501 14.8854C16.7501 14.6782 16.6678 14.4795 16.5213 14.333C16.3747 14.1865 16.176 14.1042 15.9688 14.1042ZM13.3647 14.625C13.1575 14.625 12.9588 14.7073 12.8122 14.8538C12.6657 15.0003 12.5834 15.199 12.5834 15.4062C12.5834 15.6135 12.6657 15.8122 12.8122 15.9587C12.9588 16.1052 13.1575 16.1875 13.3647 16.1875C13.5719 16.1875 13.7706 16.1052 13.9171 15.9587C14.0636 15.8122 14.1459 15.6135 14.1459 15.4062C14.1459 15.199 14.0636 15.0003 13.9171 14.8538C13.7706 14.7073 13.5719 14.625 13.3647 14.625Z" fill="black"/>
</svg>
