<svg width="23" height="22" viewBox="0 0 23 22" fill="none" xmlns="http://www.w3.org/2000/svg">
<path d="M12.2813 0.083252C8.40631 0.083252 5.25006 3.2395 5.25006 7.1145C5.25006 7.94783 5.3954 8.745 5.66103 9.48979C5.83811 9.46895 6.02093 9.45825 6.20322 9.45825C7.15114 9.45825 7.72927 9.5835 8.28656 9.7085C8.89072 9.84391 9.51536 9.97908 11.0362 9.97908H17.4215C17.8798 9.63533 18.2444 9.36466 18.4214 9.23446C18.6402 9.06779 18.8696 8.92676 19.104 8.81738C19.2394 8.27051 19.3126 7.70304 19.3126 7.1145C19.3126 3.2395 16.1563 0.083252 12.2813 0.083252ZM12.2813 1.64575C12.7032 1.64575 13.4012 2.54679 13.797 4.24992H10.7656C11.1614 2.54679 11.8594 1.64575 12.2813 1.64575ZM9.76564 2.26526C9.51043 2.84859 9.31219 3.52596 9.17157 4.24992H7.63043C8.15126 3.41138 8.88543 2.71838 9.76564 2.26526ZM14.797 2.26526C15.6772 2.71838 16.4114 3.41138 16.9322 4.24992H15.391C15.2504 3.52596 15.0522 2.84859 14.797 2.26526ZM6.9743 5.81242H8.94777C8.91131 6.24471 8.89589 6.677 8.89589 7.1145C8.89589 7.552 8.91652 7.98429 8.94777 8.41658H6.97939C6.88043 7.99992 6.81256 7.56242 6.81256 7.1145C6.81256 6.66658 6.87534 6.22908 6.9743 5.81242ZM10.5154 5.81242H14.0473C14.0837 6.21867 14.1042 6.65096 14.1042 7.1145C14.1042 7.57804 14.0837 8.01033 14.0473 8.41658H10.5154C10.4789 8.01033 10.4584 7.57804 10.4584 7.1145C10.4584 6.65096 10.4789 6.21867 10.5154 5.81242ZM15.6148 5.81242H17.5883C17.6873 6.22908 17.7501 6.66658 17.7501 7.1145C17.7501 7.56242 17.6822 7.99992 17.5832 8.41658H15.6148C15.6461 7.98429 15.6667 7.552 15.6667 7.1145C15.6667 6.677 15.6513 6.24471 15.6148 5.81242ZM20.6736 9.46842C20.0902 9.47348 19.5361 9.70475 19.044 10.0706C18.5157 10.4631 16.9263 11.6499 15.5508 12.6768C15.2525 11.7247 14.3677 11.0208 13.323 11.0208H11.0352C9.571 11.0208 8.88836 10.9021 8.30182 10.7776C7.71528 10.6531 7.14942 10.4999 6.20119 10.4999C4.17787 10.4999 2.65232 11.7983 1.65305 12.9952C0.653793 14.1921 0.111916 15.3878 0.111916 15.3878C0.06934 15.4812 0.0455766 15.5821 0.0419831 15.6846C0.0383896 15.7872 0.0550364 15.8895 0.0909727 15.9856C0.126909 16.0817 0.181431 16.1698 0.251425 16.2449C0.321418 16.32 0.405512 16.3805 0.498904 16.423C0.592296 16.4656 0.693156 16.4893 0.795724 16.4929C0.898291 16.4965 1.00056 16.4798 1.09668 16.4438C1.19281 16.4079 1.2809 16.3533 1.35595 16.2833C1.43099 16.2133 1.4915 16.1292 1.53404 16.0358C1.53404 16.0358 2.00231 15.0154 2.85239 13.9972C3.70248 12.979 4.86462 12.0624 6.20119 12.0624C6.99358 12.0624 7.3369 12.1696 7.97731 12.3055C8.61773 12.4415 9.48112 12.5833 11.0352 12.5833H13.323C13.7639 12.5833 14.1042 12.9236 14.1042 13.3645C14.1042 13.609 13.997 13.8199 13.8285 13.9616C13.8284 13.9617 13.8072 13.9779 13.8072 13.9779C13.7918 13.9899 13.7769 14.0024 13.7624 14.0155C13.6382 14.0982 13.4878 14.1458 13.323 14.1458H9.67714C9.57362 14.1443 9.47083 14.1634 9.37476 14.202C9.2787 14.2406 9.19126 14.2979 9.11753 14.3706C9.0438 14.4433 8.98526 14.5299 8.9453 14.6254C8.90534 14.721 8.88476 14.8235 8.88476 14.927C8.88476 15.0305 8.90534 15.133 8.9453 15.2286C8.98526 15.3241 9.0438 15.4107 9.11753 15.4834C9.19126 15.5561 9.2787 15.6134 9.37476 15.652C9.47083 15.6906 9.57362 15.7097 9.67714 15.7083H13.323C13.8137 15.7083 14.2701 15.5525 14.6485 15.2902C14.681 15.2724 14.7123 15.2523 14.742 15.2301C14.742 15.2301 19.1959 11.9043 19.9758 11.3249C19.9758 11.3246 19.9758 11.3242 19.9758 11.3239C20.2697 11.1054 20.5156 11.0324 20.6879 11.0309C20.8602 11.0294 20.9888 11.0712 21.167 11.2496C21.4745 11.5569 21.4727 12.0286 21.1731 12.3401C18.384 14.6854 16.6295 16.2483 15.4704 17.1639C14.2969 18.091 13.8047 18.3124 13.323 18.3124C11.4208 18.3124 9.31291 17.7916 7.07298 17.7916C5.77089 17.7916 4.85567 18.4914 4.36505 19.1455C3.87442 19.7997 3.71096 20.467 3.71096 20.467C3.68338 20.5674 3.67616 20.6723 3.68971 20.7756C3.70327 20.8788 3.73733 20.9783 3.78989 21.0682C3.84245 21.1581 3.91246 21.2366 3.99579 21.2991C4.07912 21.3615 4.17409 21.4067 4.27513 21.4319C4.37617 21.4571 4.48123 21.4619 4.58414 21.4459C4.68705 21.43 4.78573 21.3936 4.87438 21.339C4.96303 21.2843 5.03986 21.2125 5.10036 21.1277C5.16086 21.043 5.2038 20.947 5.22666 20.8454C5.22666 20.8454 5.32361 20.471 5.61423 20.0835C5.90486 19.696 6.29173 19.3541 7.07298 19.3541C9.05596 19.3541 11.1543 19.8749 13.323 19.8749C14.3136 19.8749 15.1901 19.3772 16.4388 18.3907C17.6718 17.4167 19.4039 15.8697 22.1761 13.5385C22.2101 13.5146 22.242 13.4881 22.2717 13.4591C22.2753 13.4555 22.2763 13.4505 22.2799 13.4469L22.2819 13.4489L22.3094 13.4205C22.3856 13.341 22.4442 13.2464 22.4813 13.1427C23.1305 12.23 23.088 10.9605 22.2717 10.1449C21.8401 9.71289 21.2571 9.4634 20.6736 9.46842Z" fill="black"/>
</svg>
