<svg width="14" height="12" viewBox="0 0 14 12" fill="none" xmlns="http://www.w3.org/2000/svg">
<path d="M11.0002 5.33329H9.66683V6.66663H11.0002V5.33329Z" fill="#2B2D33"/>
<path fill-rule="evenodd" clip-rule="evenodd" d="M12.3335 10.6666V8.66663H13.0002C13.3684 8.66663 13.6668 8.36815 13.6668 7.99996V3.99996C13.6668 3.63177 13.3684 3.33329 13.0002 3.33329H12.3335V1.33329C12.3335 0.965103 12.035 0.666626 11.6668 0.666626H1.00016C0.631973 0.666626 0.333496 0.965103 0.333496 1.33329V10.6666C0.333496 11.0348 0.631973 11.3333 1.00016 11.3333H11.6668C12.035 11.3333 12.3335 11.0348 12.3335 10.6666ZM11.0002 9.99996V8.66663H9.00016C7.5274 8.66663 6.3335 7.47272 6.3335 5.99996C6.3335 4.5272 7.5274 3.33329 9.00016 3.33329H11.0002V1.99996H1.66683V9.99996H11.0002ZM9.00016 4.66663C8.26378 4.66663 7.66683 5.26358 7.66683 5.99996C7.66683 6.73634 8.26378 7.33329 9.00016 7.33329H12.3335V4.66663H9.00016Z" fill="#2B2D33"/>
</svg>
