<svg width="15" height="15" viewBox="0 0 15 15" fill="none" xmlns="http://www.w3.org/2000/svg">
<path fill-rule="evenodd" clip-rule="evenodd" d="M0.601975 0.947434C0.9925 0.55691 1.62566 0.55691 2.01619 0.947434L7.30908 6.24033L12.602 0.947434C12.9925 0.55691 13.6257 0.55691 14.0162 0.947434C14.4067 1.33796 14.4067 1.97112 14.0162 2.36165L8.7233 7.65454L14.0162 12.9474C14.4067 13.338 14.4067 13.9711 14.0162 14.3616C13.6257 14.7522 12.9925 14.7522 12.602 14.3616L7.30908 9.06875L2.01619 14.3616C1.62566 14.7522 0.9925 14.7522 0.601975 14.3616C0.211451 13.9711 0.211451 13.338 0.601975 12.9474L5.89487 7.65454L0.601975 2.36165C0.211451 1.97112 0.211451 1.33796 0.601975 0.947434Z" fill="#A3A3A3"/>
</svg>
