<svg width="29" height="28" viewBox="0 0 29 28" fill="none" xmlns="http://www.w3.org/2000/svg">
<path fill-rule="evenodd" clip-rule="evenodd" d="M9.47845 15.2669C8.74529 15.2669 8.14966 14.6713 8.14966 13.9381C8.14966 13.2071 8.74529 12.6115 9.47845 12.6115C10.2116 12.6115 10.8072 13.2071 10.8072 13.9381C10.8072 14.6713 10.2116 15.2669 9.47845 15.2669ZM14.6442 15.2669C13.9111 15.2669 13.3154 14.6713 13.3154 13.9381C13.3154 13.2071 13.9111 12.6115 14.6442 12.6115C15.3774 12.6115 15.973 13.2071 15.973 13.9381C15.973 14.6713 15.3774 15.2669 14.6442 15.2669ZM18.4813 13.9381C18.4813 14.6713 19.0769 15.2669 19.8101 15.2669C20.5432 15.2669 21.1389 14.6713 21.1389 13.9381C21.1389 13.2071 20.5432 12.6115 19.8101 12.6115C19.0769 12.6115 18.4813 13.2071 18.4813 13.9381Z" fill="#25BB87"/>
<path fill-rule="evenodd" clip-rule="evenodd" d="M14.3961 2.31424C7.78944 2.31424 3.0022 7.71111 3.0022 13.7024C3.0022 15.6157 3.55938 17.5847 4.5373 19.384C4.71924 19.6812 4.74198 20.0559 4.6169 20.4101L3.85503 22.961C3.68446 23.576 4.20754 24.0304 4.78746 23.8482L7.08443 23.166C7.70984 22.961 8.1988 23.2218 8.77872 23.576C10.4389 24.5542 12.5085 25.0565 14.3733 25.0565C20.0134 25.0565 25.7445 20.6948 25.7445 13.6683C25.7445 7.60861 20.8549 2.31424 14.3961 2.31424Z" stroke="#25BB87" stroke-width="2.408" stroke-linecap="round" stroke-linejoin="round"/>
</svg>
