<svg width="16" height="15" viewBox="0 0 16 15" fill="none" xmlns="http://www.w3.org/2000/svg">
<path d="M14.8601 14.8904C15.0067 15.0367 15.2441 15.0365 15.3904 14.8899C15.5367 14.7433 15.5365 14.5059 15.3899 14.3596L14.8601 14.8904ZM11.6315 11.1379L11.3665 10.8726L11.3665 10.8726L11.6315 11.1379ZM7.17788 12.6058C3.904 12.6058 1.25 9.95176 1.25 6.67788H0.5C0.5 10.366 3.48979 13.3558 7.17788 13.3558V12.6058ZM1.25 6.67788C1.25 3.404 3.904 0.75 7.17788 0.75V0C3.48979 0 0.5 2.98979 0.5 6.67788H1.25ZM7.17788 0.75C10.4518 0.75 13.1058 3.404 13.1058 6.67788H13.8558C13.8558 2.98979 10.866 0 7.17788 0V0.75ZM13.1058 6.67788C13.1058 8.31646 12.4414 9.79917 11.3665 10.8726L11.8965 11.4033C13.1065 10.1949 13.8558 8.52356 13.8558 6.67788H13.1058ZM11.3665 10.8726C10.2936 11.9439 8.81339 12.6058 7.17788 12.6058V13.3558C9.0201 13.3558 10.6887 12.6093 11.8965 11.4033L11.3665 10.8726ZM11.3666 11.4033L14.8601 14.8904L15.3899 14.3596L11.8964 10.8725L11.3666 11.4033Z" fill="black"/>
</svg>
