<svg width="20" height="24" viewBox="0 0 20 24" fill="none" xmlns="http://www.w3.org/2000/svg">
<path fill-rule="evenodd" clip-rule="evenodd" d="M18.8235 0H1.17647V2.35294H15.4697L12.2062 4.96368C11.9272 5.18695 11.7647 5.52496 11.7647 5.88235V18.8235H1.17647V21.1765H11.7647V22.3529C11.7647 22.8052 12.0239 23.2174 12.4315 23.4133C12.8391 23.6092 13.323 23.5541 13.6761 23.2716L19.5585 18.5657C19.8375 18.3425 20 18.0044 20 17.6471V1.17647C20 0.526724 19.4733 0 18.8235 0ZM14.1176 6.44779L17.6471 3.62426V17.0816L14.1176 19.9051V6.44779ZM0.344581 11.4201C0.123949 11.1994 0 10.9002 0 10.5882C0 10.2762 0.123949 9.97692 0.34458 9.75629L5.05046 5.05041L6.71424 6.71419L4.01672 9.41171H10V11.7647L4.01672 11.7647L6.71424 14.4622L5.05046 16.126L0.344581 11.4201Z" fill="black"/>
</svg>
