<svg width="28" height="24" viewBox="0 0 28 24" fill="none" xmlns="http://www.w3.org/2000/svg">
<path d="M8.05559 11.7501H2.49012V10.8801C2.49012 10.0838 3.12384 9.45011 3.92012 9.45011H24.0801C24.8764 9.45011 25.5101 10.0838 25.5101 10.8801V11.7501H19.9446C18.6359 11.7501 17.4388 12.4896 16.8533 13.6601L16.8531 13.6604L16.6443 14.079C16.1462 15.0748 15.1263 15.6701 14.0001 15.6701C12.874 15.6701 11.8546 15.0748 11.357 14.0791L11.1482 13.6604L11.1481 13.6602C10.5625 12.4889 9.36475 11.7501 8.05559 11.7501ZM25.5101 13.3701V14.7575V19.8401C25.5101 20.6283 24.8683 21.2701 24.0801 21.2701H3.92012C3.13195 21.2701 2.49012 20.6283 2.49012 19.8401V14.7575V13.3701H8.05559C8.75603 13.3701 9.3846 13.7587 9.69788 14.3857L9.69792 14.3858L9.90682 14.8036L9.90686 14.8037C10.6752 16.3393 12.2465 17.2901 14.0001 17.2901C15.7532 17.2901 17.3238 16.3398 18.0933 14.8039C18.0933 14.8038 18.0933 14.8038 18.0933 14.8038L18.3033 14.385L18.3034 14.3847C18.6161 13.7588 19.2447 13.3701 19.9446 13.3701H25.5101ZM3.92012 1.11011C2.24232 1.11011 0.870117 2.48231 0.870117 4.16011V7.52011V10.8801V12.0001V14.7575V19.8401C0.870117 21.5243 2.23589 22.8901 3.92012 22.8901H24.0801C25.7643 22.8901 27.1301 21.5243 27.1301 19.8401V14.7575V12.0001V10.8801V7.52011V4.16011C27.1301 2.48231 25.7579 1.11011 24.0801 1.11011H3.92012ZM3.92012 2.73011H24.0801C24.8764 2.73011 25.5101 3.36383 25.5101 4.16011V4.8378C25.0849 4.60619 24.5996 4.47011 24.0801 4.47011H3.92012C3.40065 4.47011 2.91535 4.60619 2.49012 4.8378V4.16011C2.49012 3.36383 3.12384 2.73011 3.92012 2.73011ZM3.92012 6.09011H24.0801C24.8764 6.09011 25.5101 6.72383 25.5101 7.52011V8.1978C25.0849 7.96619 24.5996 7.83011 24.0801 7.83011H3.92012C3.40065 7.83011 2.91535 7.96619 2.49012 8.1978V7.52011C2.49012 6.72383 3.12384 6.09011 3.92012 6.09011Z" fill="#24CE94" stroke="#24CE94" stroke-width="0.5"/>
</svg>
