<svg width="20" height="20" viewBox="0 0 20 20" fill="none" xmlns="http://www.w3.org/2000/svg">
<path fill-rule="evenodd" clip-rule="evenodd" d="M10 0C4.48609 0 0 4.48609 0 10C0 15.5143 4.48609 20 10 20C15.5143 20 20 15.5143 20 10C20 4.48609 15.5143 0 10 0ZM5 10C5 9.44771 5.44772 9 6 9H9V6C9 5.44772 9.44771 5 10 5C10.5523 5 11 5.44772 11 6V9H14C14.5523 9 15 9.44771 15 10C15 10.5523 14.5523 11 14 11H11V14C11 14.5523 10.5523 15 10 15C9.44771 15 9 14.5523 9 14V11H6C5.44772 11 5 10.5523 5 10Z" fill="white"/>
</svg>
