<svg width="20" height="20" viewBox="0 0 20 20" fill="none" xmlns="http://www.w3.org/2000/svg">
<path fill-rule="evenodd" clip-rule="evenodd" d="M10 20C15.5228 20 20 15.5228 20 10C20 4.47715 15.5228 0 10 0C4.47715 0 0 4.47715 0 10C0 15.5228 4.47715 20 10 20Z" fill="#25BB87"/>
<path fill-rule="evenodd" clip-rule="evenodd" d="M13.6377 9.2429H4.24774C3.83478 9.2429 3.5 9.58178 3.5 9.99981C3.5 10.4178 3.83478 10.7567 4.24774 10.7567H13.6375L11.2162 13.2079C10.9243 13.5035 10.9243 13.9828 11.2163 14.2783C11.5083 14.5739 11.9818 14.5739 12.2738 14.2783L16.5 9.99984L12.2745 5.72175C11.9826 5.42613 11.5091 5.42608 11.2171 5.72164C10.925 6.0172 10.925 6.49645 11.217 6.79207L13.6377 9.2429Z" fill="white"/>
</svg>
