<svg width="24" height="30" viewBox="0 0 24 30" fill="none" xmlns="http://www.w3.org/2000/svg">
<path d="M11.9998 0.833252C15.9119 0.833252 19.0832 4.00457 19.0832 7.91659V13.5833H21.9165C22.6989 13.5833 23.3332 14.2175 23.3332 14.9999V27.7499C23.3332 28.5323 22.6989 29.1666 21.9165 29.1666H2.08317C1.30077 29.1666 0.666504 28.5323 0.666504 27.7499V14.9999C0.666504 14.2175 1.30077 13.5833 2.08317 13.5833H16.2498V7.91659C16.2498 5.56938 14.347 3.66659 11.9998 3.66659C9.65263 3.66659 7.74984 5.56938 7.74984 7.91659V9.33325H4.9165V7.91659C4.9165 4.00457 8.08782 0.833252 11.9998 0.833252ZM20.4998 16.4166H3.49984V26.3333H20.4998V16.4166ZM13.4165 19.2499V23.4999H10.5832V19.2499H13.4165Z" fill="#24CE94"/>
</svg>
