<svg width="28" height="28" viewBox="0 0 28 28" fill="none" xmlns="http://www.w3.org/2000/svg">
<path fill-rule="evenodd" clip-rule="evenodd" d="M18.9931 2.31424H22.7076C24.2444 2.31424 25.4911 3.57177 25.4911 5.12311V8.86866C25.4911 10.4188 24.2444 11.6775 22.7076 11.6775H18.9931C17.4551 11.6775 16.2084 10.4188 16.2084 8.86866V5.12311C16.2084 3.57177 17.4551 2.31424 18.9931 2.31424Z" stroke="#979797" stroke-width="2.408" stroke-linecap="round" stroke-linejoin="round"/>
<path fill-rule="evenodd" clip-rule="evenodd" d="M5.5336 2.31424H9.24691C10.7849 2.31424 12.0316 3.57177 12.0316 5.12311V8.86866C12.0316 10.4188 10.7849 11.6775 9.24691 11.6775H5.5336C3.99561 11.6775 2.7489 10.4188 2.7489 8.86866V5.12311C2.7489 3.57177 3.99561 2.31424 5.5336 2.31424Z" stroke="#979797" stroke-width="2.408" stroke-linecap="round" stroke-linejoin="round"/>
<path fill-rule="evenodd" clip-rule="evenodd" d="M5.5336 15.6932H9.24691C10.7849 15.6932 12.0316 16.9507 12.0316 18.5032V22.2476C12.0316 23.7989 10.7849 25.0565 9.24691 25.0565H5.5336C3.99561 25.0565 2.7489 23.7989 2.7489 22.2476V18.5032C2.7489 16.9507 3.99561 15.6932 5.5336 15.6932Z" stroke="#979797" stroke-width="2.408" stroke-linecap="round" stroke-linejoin="round"/>
<path fill-rule="evenodd" clip-rule="evenodd" d="M18.9931 15.6932H22.7076C24.2444 15.6932 25.4911 16.9507 25.4911 18.5032V22.2476C25.4911 23.7989 24.2444 25.0565 22.7076 25.0565H18.9931C17.4551 25.0565 16.2084 23.7989 16.2084 22.2476V18.5032C16.2084 16.9507 17.4551 15.6932 18.9931 15.6932Z" stroke="#979797" stroke-width="2.408" stroke-linecap="round" stroke-linejoin="round"/>
</svg>
