<svg width="20" height="19" viewBox="0 0 20 19" fill="none" xmlns="http://www.w3.org/2000/svg">
<path fill-rule="evenodd" clip-rule="evenodd" d="M13.7781 12.1587C15.9101 9.35216 15.6952 5.33206 13.1334 2.77019C10.3369 -0.0262612 5.80297 -0.0262612 3.00652 2.77019C0.210067 5.56664 0.210067 10.1006 3.00652 12.897C5.56871 15.4592 9.58948 15.6739 12.396 13.5409L17.5311 18.6757L17.6311 18.7631C18.0138 19.0544 18.5625 19.0253 18.912 18.6757C19.2934 18.2944 19.2934 17.6761 18.912 17.2948L13.7781 12.1587ZM3.92722 3.6901C6.21522 1.4021 9.92481 1.4021 12.2128 3.6901C14.5008 5.97811 14.5008 9.6877 12.2128 11.9757C9.92481 14.2637 6.21522 14.2637 3.92722 11.9757C1.63921 9.6877 1.63921 5.97811 3.92722 3.6901Z" fill="#3C3C43"/>
</svg>
