<svg width="16" height="16" viewBox="0 0 16 16" fill="none" xmlns="http://www.w3.org/2000/svg">
<path fill-rule="evenodd" clip-rule="evenodd" d="M10.8989 9.82315C12.5585 7.63867 12.3912 4.5096 10.3971 2.51554C8.22049 0.338896 4.69145 0.338896 2.51481 2.51554C0.338163 4.69218 0.338163 8.22122 2.51481 10.3979C4.50911 12.3922 7.63872 12.5592 9.82323 10.8991L13.8201 14.8957L13.898 14.9638C14.1959 15.1905 14.6229 15.1678 14.895 14.8957C15.1918 14.5989 15.1918 14.1177 14.895 13.8209L10.8989 9.82315ZM3.23139 3.23166C5.01228 1.45077 7.89967 1.45077 9.68056 3.23166C11.4615 5.01255 11.4615 7.89995 9.68056 9.68084C7.89967 11.4617 5.01228 11.4617 3.23139 9.68084C1.4505 7.89995 1.4505 5.01255 3.23139 3.23166Z" fill="#3C3C43"/>
</svg>
