<svg width="28" height="28" viewBox="0 0 28 28" fill="none" xmlns="http://www.w3.org/2000/svg">
<path fill-rule="evenodd" clip-rule="evenodd" d="M24.2888 8.70887L23.581 7.48069C22.9822 6.44146 21.6553 6.08295 20.6146 6.67925C20.1193 6.97106 19.5282 7.05385 18.9717 6.90936C18.4152 6.76488 17.9391 6.40498 17.6483 5.90903C17.4612 5.5938 17.3606 5.23475 17.3568 4.8682C17.3737 4.28052 17.152 3.71103 16.7422 3.28946C16.3324 2.8679 15.7694 2.63016 15.1815 2.6304H13.7555C13.1796 2.6304 12.6273 2.85991 12.221 3.26817C11.8147 3.67643 11.5878 4.22977 11.5906 4.80574C11.5735 5.99494 10.6046 6.94999 9.41529 6.94986C9.04874 6.94606 8.68969 6.84552 8.37446 6.65843C7.33381 6.06213 6.00686 6.42064 5.40808 7.45987L4.64827 8.70887C4.05023 9.7468 4.40386 11.0729 5.43931 11.6752C6.11237 12.0638 6.52699 12.782 6.52699 13.5592C6.52699 14.3363 6.11237 15.0545 5.43931 15.4431C4.40517 16.0413 4.05115 17.3642 4.64827 18.399L5.36645 19.6376C5.647 20.1439 6.11771 20.5174 6.67443 20.6756C7.23115 20.8339 7.82797 20.7637 8.33283 20.4807C8.82913 20.1911 9.42055 20.1118 9.97563 20.2603C10.5307 20.4089 11.0034 20.773 11.2888 21.2717C11.4759 21.587 11.5764 21.946 11.5802 22.3126C11.5802 23.514 12.5541 24.4879 13.7555 24.4879H15.1815C16.3788 24.4879 17.3511 23.5203 17.3568 22.323C17.354 21.7452 17.5823 21.1903 17.9909 20.7817C18.3995 20.3731 18.9544 20.1449 19.5322 20.1476C19.8978 20.1574 20.2554 20.2575 20.573 20.4391C21.6109 21.0371 22.9371 20.6835 23.5394 19.648L24.2888 18.399C24.5789 17.9011 24.6585 17.3082 24.51 16.7514C24.3615 16.1946 23.9972 15.72 23.4977 15.4327C22.9983 15.1453 22.634 14.6707 22.4855 14.1139C22.337 13.5572 22.4166 12.9642 22.7067 12.4663C22.8953 12.1369 23.1684 11.8639 23.4977 11.6752C24.527 11.0732 24.8798 9.75488 24.2888 8.71928V8.70887Z" stroke="#25BB87" stroke-width="2.408" stroke-linecap="round" stroke-linejoin="round"/>
<path d="M14.4737 16.5568C16.1292 16.5568 17.4713 15.2147 17.4713 13.5592C17.4713 11.9037 16.1292 10.5616 14.4737 10.5616C12.8181 10.5616 11.4761 11.9037 11.4761 13.5592C11.4761 15.2147 12.8181 16.5568 14.4737 16.5568Z" stroke="#25BB87" stroke-width="2.408" stroke-linecap="round" stroke-linejoin="round"/>
</svg>
