<svg width="21" height="20" viewBox="0 0 21 20" fill="none" xmlns="http://www.w3.org/2000/svg">
<path d="M0.916748 9.94718C0.916748 15.2314 5.21587 19.5305 10.5001 19.5305C15.7843 19.5305 20.0834 15.2314 20.0834 9.94718C20.0834 4.66296 15.7843 0.363851 10.5001 0.363851C5.21587 0.363851 0.916747 4.66297 0.916748 9.94718ZM2.35425 9.94718C2.35425 5.43985 5.99275 1.80135 10.5001 1.80135C15.0074 1.80135 18.6459 5.43985 18.6459 9.94718C18.6459 14.4545 15.0074 18.093 10.5001 18.093C5.99275 18.093 2.35425 14.4545 2.35425 9.94718ZM5.70935 9.98649C5.7186 10.1535 5.78579 10.312 5.89933 10.4348L8.77433 13.5494C8.83759 13.6215 8.91467 13.6803 9.00101 13.7223C9.08736 13.7642 9.18122 13.7884 9.27707 13.7934C9.37292 13.7985 9.46881 13.7843 9.55909 13.7517C9.64937 13.7191 9.7322 13.6688 9.80271 13.6036C9.87321 13.5385 9.92996 13.4599 9.9696 13.3725C10.0092 13.2851 10.031 13.1906 10.0335 13.0947C10.0361 12.9987 10.0194 12.9032 9.98441 12.8138C9.94945 12.7244 9.89695 12.643 9.83 12.5742L8.06868 10.6659L14.573 10.6659C14.6682 10.6673 14.7628 10.6497 14.8512 10.6142C14.9396 10.5787 15.02 10.5259 15.0878 10.459C15.1557 10.3922 15.2095 10.3125 15.2463 10.2246C15.2831 10.1367 15.302 10.0424 15.302 9.94718C15.302 9.85193 15.2831 9.75763 15.2463 9.66976C15.2095 9.58188 15.1557 9.50219 15.0878 9.43532C15.02 9.36844 14.9396 9.31572 14.8512 9.2802C14.7628 9.24468 14.6682 9.22709 14.573 9.22843L8.06868 9.22843L9.83 7.32019C9.89695 7.25142 9.94945 7.16993 9.98441 7.08054C10.0194 6.99115 10.0361 6.89566 10.0335 6.79971C10.031 6.70376 10.0092 6.60929 9.9696 6.52188C9.92996 6.43447 9.87321 6.35588 9.80271 6.29075C9.7322 6.22562 9.64937 6.17527 9.55909 6.14267C9.46881 6.11007 9.37292 6.09588 9.27707 6.10094C9.18122 6.10599 9.08736 6.1302 9.00101 6.17212C8.91467 6.21404 8.83759 6.27282 8.77433 6.34501L5.89933 9.45959C5.83402 9.53024 5.78355 9.61327 5.75091 9.70378C5.71828 9.79428 5.70414 9.89042 5.70935 9.98649Z" fill="black"/>
</svg>
