<svg width="16" height="16" viewBox="0 0 16 16" fill="none" xmlns="http://www.w3.org/2000/svg">
<path d="M4.87492 0.083252C3.98659 0.083252 3.21676 0.592419 2.83634 1.33325H13.6249C14.1995 1.33325 14.6666 1.80034 14.6666 2.37492V13.1635C15.4074 12.7835 15.9166 12.0133 15.9166 11.1249V2.37492C15.9166 1.11159 14.8883 0.083252 13.6249 0.083252H4.87492ZM2.37492 2.58325C1.11668 2.58325 0.083252 3.61668 0.083252 4.87492V13.6249C0.083252 14.8832 1.11668 15.9166 2.37492 15.9166H11.1249C12.3832 15.9166 13.4166 14.8832 13.4166 13.6249V4.87492C13.4166 3.61668 12.3832 2.58325 11.1249 2.58325H2.37492ZM2.37492 3.83325H11.1249C11.7075 3.83325 12.1666 4.29232 12.1666 4.87492V13.6249C12.1666 14.2075 11.7075 14.6666 11.1249 14.6666H2.37492C1.79232 14.6666 1.33325 14.2075 1.33325 13.6249V4.87492C1.33325 4.29232 1.79232 3.83325 2.37492 3.83325Z" fill="black"/>
</svg>
