<svg width="16" height="15" viewBox="0 0 16 15" fill="none" xmlns="http://www.w3.org/2000/svg">
<path d="M8.00011 0C7.60354 0 7.22554 0.0396579 6.86486 0.094401C6.78162 0.104229 6.70122 0.130695 6.62842 0.172226C6.55562 0.213757 6.49192 0.269504 6.4411 0.336152C6.39028 0.4028 6.35338 0.478987 6.33261 0.560183C6.31183 0.641378 6.30759 0.725923 6.32014 0.808789C6.3327 0.891655 6.36179 0.97115 6.40569 1.04255C6.44959 1.11394 6.5074 1.17578 6.57568 1.22438C6.64396 1.27298 6.72132 1.30736 6.80315 1.32546C6.88498 1.34356 6.96962 1.34502 7.05203 1.32975C7.37218 1.28116 7.68668 1.25 8.00011 1.25C11.4594 1.25 14.2501 4.04067 14.2501 7.5C14.2501 10.9593 11.4594 13.75 8.00011 13.75C4.54078 13.75 1.75011 10.9593 1.75011 7.5C1.75011 5.86073 2.38657 4.38314 3.41678 3.27067V4.79167C3.41561 4.87449 3.43091 4.95671 3.46179 5.03357C3.49268 5.11042 3.53853 5.18037 3.59668 5.23936C3.65483 5.29834 3.72413 5.34517 3.80054 5.37714C3.87695 5.40911 3.95895 5.42557 4.04178 5.42557C4.12461 5.42557 4.20661 5.40911 4.28302 5.37714C4.35943 5.34517 4.42873 5.29834 4.48688 5.23936C4.54503 5.18037 4.59088 5.11042 4.62177 5.03357C4.65265 4.95671 4.66795 4.87449 4.66678 4.79167V1.875C4.66676 1.70924 4.60091 1.55028 4.4837 1.43308C4.3665 1.31587 4.20753 1.25002 4.04178 1.25H1.12511C1.04229 1.24883 0.960066 1.26413 0.883211 1.29501C0.806355 1.3259 0.736405 1.37175 0.677424 1.4299C0.618443 1.48805 0.571608 1.55735 0.53964 1.63376C0.507673 1.71017 0.491211 1.79217 0.491211 1.875C0.491211 1.95783 0.507673 2.03983 0.53964 2.11624C0.571608 2.19265 0.618443 2.26195 0.677424 2.3201C0.736405 2.37825 0.806355 2.4241 0.883211 2.45499C0.960066 2.48587 1.04229 2.50117 1.12511 2.5H2.41906C1.22809 3.82672 0.500112 5.57945 0.500112 7.5C0.500112 11.6348 3.86528 15 8.00011 15C12.1349 15 15.5001 11.6348 15.5001 7.5C15.5001 3.36517 12.1349 0 8.00011 0Z" fill="black"/>
</svg>
