<svg width="21" height="21" viewBox="0 0 21 21" fill="none" xmlns="http://www.w3.org/2000/svg">
<path d="M20.0833 10.5001C20.0833 5.21586 15.7841 0.916748 10.4999 0.916748C5.2157 0.916747 0.916586 5.21586 0.916586 10.5001C0.916585 15.7843 5.2157 20.0834 10.4999 20.0834C15.7841 20.0834 20.0833 15.7843 20.0833 10.5001ZM18.6458 10.5001C18.6458 15.0074 15.0073 18.6459 10.4999 18.6459C5.99258 18.6459 2.35409 15.0074 2.35409 10.5001C2.35409 5.99274 5.99259 2.35425 10.4999 2.35425C15.0073 2.35425 18.6458 5.99274 18.6458 10.5001ZM15.2906 10.4608C15.2814 10.2938 15.2142 10.1353 15.1007 10.0125L12.2257 6.89791C12.1624 6.82572 12.0853 6.76693 11.999 6.72501C11.9126 6.68309 11.8188 6.65889 11.7229 6.65383C11.6271 6.64878 11.5312 6.66297 11.4409 6.69557C11.3506 6.72817 11.2678 6.77851 11.1973 6.84364C11.1268 6.90877 11.07 6.98736 11.0304 7.07478C10.9908 7.16219 10.969 7.25666 10.9665 7.35261C10.9639 7.44856 10.9806 7.54404 11.0156 7.63344C11.0505 7.72283 11.103 7.80431 11.17 7.87309L12.9313 9.78133L6.427 9.78133C6.33176 9.77998 6.2372 9.79758 6.14881 9.8331C6.06043 9.86861 5.97999 9.92134 5.91216 9.98822C5.84433 10.0551 5.79047 10.1348 5.75371 10.2227C5.71695 10.3105 5.69802 10.4048 5.69802 10.5001C5.69802 10.5953 5.71695 10.6896 5.75371 10.7775C5.79047 10.8654 5.84433 10.9451 5.91216 11.0119C5.97999 11.0788 6.06043 11.1315 6.14881 11.1671C6.2372 11.2026 6.33176 11.2202 6.427 11.2188L12.9313 11.2188L11.17 13.1271C11.103 13.1958 11.0505 13.2773 11.0156 13.3667C10.9806 13.4561 10.9639 13.5516 10.9665 13.6476C10.969 13.7435 10.9908 13.838 11.0304 13.9254C11.07 14.0128 11.1268 14.0914 11.1973 14.1565C11.2678 14.2216 11.3506 14.272 11.4409 14.3046C11.5312 14.3372 11.6271 14.3514 11.7229 14.3463C11.8188 14.3413 11.9126 14.3171 11.999 14.2751C12.0853 14.2332 12.1624 14.1744 12.2257 14.1023L15.1007 10.9877C15.166 10.917 15.2165 10.834 15.2491 10.7435C15.2817 10.653 15.2959 10.5568 15.2906 10.4608Z" fill="black"/>
</svg>
